<!DOCTYPE svg PUBLIC "-//W3C//DTD SVG 1.1//EN" "http://www.w3.org/Graphics/SVG/1.1/DTD/svg11.dtd">
<!-- Uploaded to: SVG Repo, www.svgrepo.com, Transformed by: SVG Repo Mixer Tools -->
<svg width="800px" height="800px" viewBox="0 0 24 24" fill="none" xmlns="http://www.w3.org/2000/svg">
<g id="SVGRepo_bgCarrier" stroke-width="0"/>
<g id="SVGRepo_tracerCarrier" stroke-linecap="round" stroke-linejoin="round"/>
<g id="SVGRepo_iconCarrier"> <path d="M12 2C6.47715 2 2 6.47715 2 12C2 17.5228 6.47715 22 12 22C17.5228 22 22 17.5228 22 12C22 6.47715 17.5228 2 12 2Z" stroke="#3F51B5" stroke-width="1.6799999999999997" stroke-linecap="round" stroke-linejoin="round"/> <path d="M8 21.1679V14L12 7L16 14V21.1679" stroke="#3F51B5" stroke-width="1.6799999999999997" stroke-linecap="round" stroke-linejoin="round"/> <path d="M8 14C8 14 9.12676 15 10 15C10.8732 15 12 14 12 14C12 14 13.1268 15 14 15C14.8732 15 16 14 16 14" stroke="#3F51B5" stroke-width="1.6799999999999997" stroke-linecap="round" stroke-linejoin="round"/> </g>
</svg>